<?xml version="1.0" encoding="utf-8"?>
<!-- Generator: Adobe Illustrator 26.0.3, SVG Export Plug-In . SVG Version: 6.00 Build 0)  -->
<svg version="1.1" id="Layer_1" xmlns="http://www.w3.org/2000/svg" xmlns:xlink="http://www.w3.org/1999/xlink" x="0px" y="0px"
	 fill="currentColor" viewBox="0 0 20 20" style="enable-background:new 0 0 20 20;" xml:space="preserve">
<g>
	<polygon points="14.3,15.1 14,15.3 14.2,15.2 	"/>
	<path d="M13.4,15.7L13,16C13.2,16,13.3,15.9,13.4,15.7z"/>
	<path d="M13.4,15.7l0.4-0.3C13.6,15.4,13.5,15.6,13.4,15.7z"/>
	<path d="M12.3,16.3c0,0-0.1,0-0.1,0.1C12.2,16.4,12.3,16.4,12.3,16.3z"/>
	<path d="M12.3,16.3c0.2-0.1,0.6-0.2,0.4-0.2C12.5,16.2,12.4,16.3,12.3,16.3z"/>
	<path d="M18.2,8.4C18.2,8.4,18.2,8.4,18.2,8.4c0-0.1,0-0.1,0-0.2c-0.1,0-0.1,0.1-0.2,0.1l-0.2-0.1
		c0,0.1-0.1,0.1-0.1,0.2c0-0.1-0.1-0.2-0.1-0.3c0.4-0.1,0.8-0.3,1.2-0.4l-0.1-0.3c0,0-0.1,0-0.1,0l0,0c-0.4,0.1-0.7,0.2-1.1,0.4
		c-0.3-0.5-0.7-1-1.2-1.4c0.1,0,0.1-0.1,0.2-0.1l0.7-0.6l-0.9,0.1c-0.1,0-0.2,0-0.4,0.1c-0.3-0.4-0.6-0.6-0.9-0.9
		c-0.5-0.4-1-0.6-1.4-1.2c-0.6,0.1-0.9-0.9-1.6-1v0.1c-0.2-0.4-0.6,0.4-0.6-0.2c-0.1-0.3-0.4,0.6-0.4,0.3V3c-0.1,0,0-0.2-0.1-0.2
		c0,0,0,0.2-0.1,0.2c0-0.5-0.4,0.1-0.3-0.5c0.1,0-0.1-0.2,0.1-0.4c-0.1-0.1-0.3,0-0.3,0.2c0,0.3-0.1,0.5,0,0.7V2.8
		c0,0.2,0,0.1,0.1,0.3c0.2,0,0.2,0.3,0.3,0.5c0.1-0.2,0.2-0.1,0.3,0v0.1c0,0.2,0.3-0.4,0.2,0c0.4-0.1,0.8,0,1.2,0.1
		c0.1-0.1,0.3,0.1,0.3-0.2c0,0.4,0.2,0.5,0.3,0.6c0,0.5,0.4-0.3,0.3,0.3c0.2-0.3,0.3,0.3,0.6,0c0,0.1-0.1,0.2-0.1,0.2
		c0.3,0.2,0.5,0.5,0.7,0.7c0.4-0.1,0.3,0.5,0.8,0.4c0,0,0,0.1,0,0.1c-1.9,0.5-3.5,1.5-5,2.6C10,8.8,9.8,9,9.6,9.2
		C9.4,9.3,9.2,9.3,9,9.4C7.9,9.7,6.8,10,5.7,10.3c-0.2,0-0.4,0.1-0.5,0.1c2.1-1.2,4.2-2.9,5.9-4.1c0.4-0.3,0.8-0.6,1.2-0.9
		C12.5,5.3,12.8,5.1,13,5l-0.1-0.1c0,0,0.1,0,0.1-0.1l-0.1-0.2c0,0-0.1,0-0.1,0.1l-0.1-0.2c-0.2,0.2-0.3,0.3-0.5,0.5
		C9.4,6.4,6.6,7.7,3.8,9c0.9-0.7,1.8-1.3,2.6-1.9c0.7-0.4,1.4-0.8,2.1-1.2c0.6-0.2,1.3-0.5,1.8-0.6c0.6-0.3,1.3-0.5,2-0.7l-0.1-0.3
		c-0.5,0.1-0.9,0.3-1.3,0.4c0.4-0.2,0.8-0.4,1.2-0.6l0.1,0.1L12,3.8c-0.6,0.3-1.2,0.5-1.6,0.8C9.7,4.8,8.7,5.3,7.9,5.8
		C7.6,5.9,7.3,6.1,7,6.2c0.8-0.4,1.6-0.9,2.3-1.5H9.2c0.2-0.1,0.5-0.3,0.7-0.6c0.2,0,0.3-0.1,0.5-0.1l-0.1-0.3c0,0,0,0,0,0V3.6
		c0,0-0.1,0-0.1,0l-0.1-0.2C9.9,3.6,9.7,3.8,9.5,3.9C9.3,4,9.2,4,9.1,4h0.1c-0.5,0-1,0.7-1.3,0.6H7.8c-0.6,0.2-0.1,0-0.5,0.1
		C7.1,4.8,7.2,4.9,6.9,5C6.7,4.7,5.5,5.6,5.4,5.4c0.3-0.1-0.5,0.1,0.1-0.3c-0.2,0.1-1.1,0.5-1,0.6c0,0.2-0.3,0.4,0.3,0.3l0.1-0.1
		c0.2,0,0.2,0,0.3,0C5.9,5.5,6,5.6,6.6,5.4C6.9,5.1,7.4,5,7.7,4.9h0.1c0.2,0,0.8-0.5,0.6-0.3c0.1,0,0.3-0.1,0.4-0.1
		C8.4,4.8,7.9,5.1,7.5,5.4C7.3,5.6,6.3,6.1,6.7,6.1C6.2,6.2,5,6.8,4.6,7c0,0,0,0,0.1-0.1C4.1,7.1,3.9,7.4,3.4,7.5
		C3.8,6.6,4.1,5.8,4.7,5c0.4,0,0.4-0.6,0.7-0.5c0-0.1,0-0.2-0.1-0.2c0.6-0.6,1.3-1,2-1.6c0.1,0,0.1,0.1,0.1,0.2
		c0.5-0.7,1.4-0.7,2.1-0.7c0-0.1-0.1-0.1,0-0.2C9.2,1.8,9.1,2.3,8.8,2.1V2c-0.2,0,0,0.3-0.2,0.2c0-0.1,0.1-0.2,0-0.2
		C8.3,2.2,7.9,2.1,7.7,2.5C7.5,2.3,7.3,2.6,7.1,2.4C7.1,2.6,7,2.6,7,2.7C5.9,3.1,5,4,4.2,4.9c0,0.7-0.8,0.9-1.1,1.6
		C3.1,6.7,3,7,2.8,7.2l0.1,0.3C2.5,8.1,2.3,8.9,2.2,9.7c-0.1,0.8,0,1.6,0.1,2.4c0.1,0.9,0.4,1.7,0.8,2.5c0.4,0.8,1,1.4,1.9,1.7
		c0,0,0,0.1-0.1,0c0.4,0.3,0.7,0.7,1.2,0.8c0.6,0.2,1.1,0.4,1.7,0.6C8.3,18,8.9,18.2,9.4,18c1.3,0.2,2.9-0.1,4-0.8v0.1
		c0.9-0.6,2.1-0.9,2.7-1.9c0.5-0.4,0.7-1,0.8-1.6c0-0.1,0-0.1,0.1-0.2c0,0,0.1,0,0.1-0.1c0,0,0,0-0.1,0c0.1-0.3,0.1-0.6,0.2-0.8l0,0
		l0.3,0.4c-0.1,0.1-0.3,0.3-0.5,0.4c0.2-0.1,0.4-0.3,0.6-0.4l-0.4-0.5c0.1-0.2,0.1-0.4,0.2-0.5c0.3-0.3,0.2-0.7,0.2-1.1
		c0-0.1,0-0.2-0.1-0.3c0,0,0,0,0.1,0l0-0.1c0,0,0,0,0,0l-0.1-0.1c0-0.2,0-0.4,0.1-0.6c0.1-0.2,0.1-0.5,0.2-0.7
		c0.1-0.1,0.1-0.2,0.2-0.3c0.2-0.1,0.3-0.2,0.5-0.3L18.2,8.4z M17,10.4c-0.2,0.1-0.3,0.2-0.5,0.3c-0.2,0.2-0.4,0.4-0.7,0.5
		c-2.2,1.2-4.6,2-7,2.7c0.7-0.3,1.4-0.7,2-1c0.8-0.4,1.6-0.8,2.3-1.2c1.3-0.5,2.6-1.1,3.8-2l-0.1,0.2c0.1-0.1,0.2-0.2,0.3-0.2
		C17.1,9.9,17.1,10.2,17,10.4z M16.5,8.5c0.2,0.1,0.3,0.3,0.4,0.5c-1,0.6-2.2,1.1-3.5,2.1l0.1-0.1c-0.4,0.2-0.8,0.5-1.2,0.7
		c-0.1,0-0.2,0.1-0.3,0.1c0,0,0,0,0-0.1c-0.2,0.1-0.4,0.2-0.6,0.3c-0.9,0.4-1.9,0.7-2.9,1c0,0-0.1,0,0.1-0.1
		c-0.8,0.3-1.5,0.4-2.2,0.6c1.8-0.9,3.3-2.2,5.1-3.1c0.9-0.5,1.8-0.9,2.7-1.2C14.6,9.1,15,9,15.4,8.9c0.4-0.2,0.8-0.3,1.2-0.5
		C16.6,8.4,16.6,8.5,16.5,8.5z M16.3,6.9C16,7.2,16.1,7.3,16,7.5c0.3,0.1,0.4,0.4,0.5,0.6C13.7,9,10.8,10,7.9,10.9
		c0.1-0.1,0.2-0.2,0.4-0.3c0.3-0.3,0.6-0.6,1-0.9c0.4-0.1,0.8-0.2,1.2-0.4c1.9-0.5,3.7-1.4,5.3-2.6C15.9,6.8,16.1,6.9,16.3,6.9z
		 M5.9,12C6,12,6,12,5.9,12c0.1,0,0.1,0,0.1,0C6,12,6,12,5.9,12z M10.6,8.5c1.4-1.1,3-2,4.8-2.3c0,0.1,0.1,0.2,0.2,0.2h-0.1
		c0,0,0,0,0.1,0.1c-0.1,0.1-0.2,0.2-0.3,0.2c-1.6,1.1-3.5,1.9-5.4,2.4C10.1,8.9,10.4,8.7,10.6,8.5z M9.4,9.4
		C9.4,9.4,9.4,9.4,9.4,9.4C9.4,9.4,9.3,9.5,9.4,9.4C9.3,9.5,9.3,9.4,9.4,9.4z M2.9,9.9L2.9,9.9L2.8,9.8H3C3,9.4,2.9,9,3,8.6l0.2,0.1
		C3,8.4,3.2,8.2,3.3,7.9l0,0c0.3-0.1,0.6-0.3,0.9-0.4C4.1,7.6,4.1,7.7,4,7.7C3.8,7.8,3.6,7.9,3.4,8.1l0.1,0.2c0.1,0,0.2-0.1,0.3-0.1
		C3.8,8,5.3,7.4,5.6,7c0.1,0,0.2,0,0.1,0.1C5.8,7.1,5.9,7,6,7C5.2,7.5,4.5,8,4.1,8.4c-0.3,0-0.6,0.2-1,0.5l0.5,0.8
		c0.2-0.1,0.3-0.1,0.5-0.2c0.8-0.4,2.5-1.2,3.7-1.8c0.2,0,1-0.5,1.1-0.4C9.3,7,9.8,6.8,10.3,6.5C9,7.5,7.6,8.4,6.2,9.1
		C5.8,9.4,5.4,9.9,5,10.2c-0.1,0-0.1,0,0-0.1c-0.6,0.4-1.3,0.6-2,0.9c0,0,0,0,0.1-0.1C3,10.9,2.9,11,2.8,11c0,0,0-0.1,0-0.1H3
		C2.8,10.7,2.9,10.2,2.9,9.9z M4,14.2h0.2c-0.3,0-0.1-0.4-0.5-0.1l0.1-0.2c-0.7-0.2-0.1-0.9-0.7-1.2h0.1C3,12.6,2.9,12.4,3,12.3
		c0,0,0,0,0.1,0c0.2-0.3,0-0.6-0.1-0.8c0,0,0,0,0.1-0.1c0,0,0,0,0,0c0.4-0.1,0.8-0.3,1.2-0.5c1.6-0.4,3.1-0.7,4.7-1.1
		c-0.4,0.4-0.9,0.9-1.3,1.3c-0.9,0.3-1.9,0.6-2.8,0.9c-0.1,0-0.1,0-0.2-0.1V12c-0.1,0-0.1,0-0.2,0.1c0.1,0,0.1,0.1,0.2,0.1v0.3
		c0.4-0.1,0.8-0.2,1-0.3c0.3-0.1,0.6-0.2,0.9-0.3c1.7-0.6,3.5-1.2,5.3-1.8c-0.9,0.5-1.9,1-2.8,1.6c-1.4,1-3,1.9-4.7,2.3
		c-0.1,0-0.2,0-0.3,0l0.1,0.5C4.7,14.2,5,14.2,5.4,14c0.1,0,0.2-0.1,0.3-0.1c1.2-0.2,2.1-0.5,3.4-0.8h0.1c0.3-0.1,0.6-0.2,0.9-0.3
		c-1,0.5-2,1.1-3,1.6c-0.1,0-0.3,0.1-0.4,0.1l0,0c0,0,0,0,0,0c-0.7,0.2-1.4,0.3-2.1,0.5l0.2,0.5c0,0,0,0,0,0v0
		c-0.1-0.1-0.2-0.3-0.2-0.4C4.5,14.7,4.3,14.4,4,14.2z M4.9,15.5L4.9,15.5C4.9,15.5,4.9,15.5,4.9,15.5C4.9,15.5,4.9,15.5,4.9,15.5z
		 M15.8,14.7c-0.3,0.6-0.8,1.3-1.4,1.7v-0.1l-0.1,0.3v-0.1c-0.4,0.1-0.6,0.5-0.9,0.6c0,0,0-0.2-0.1-0.2C13,17,12.7,16.4,12.7,17
		c0,0-0.1-0.1-0.1-0.2c0,0,0,0-0.1,0c0.1-0.1,0.2-0.2,0.4-0.2l-0.1,0.1c0.2-0.1,0.2-0.2,0.3-0.2c-0.3,0.2-0.7,0.4-1,0.6
		c-0.2,0.1-0.4,0.1-0.6,0.2l-0.2-0.5c0.3-0.1,0.5-0.3,0.8-0.4c0.1-0.1-0.3,0.1-0.1-0.1c-0.3,0.1-0.5,0.3-0.8,0.4l0.3,0.6
		c-0.3,0.1-0.6,0.1-0.9,0c-0.6,0.5-1.3,0-2,0.2v-0.1c-0.7,0.1-1.2-0.2-1.8-0.6c0,0,0.1,0,0.1-0.1c0.3,0,0.6-0.1,0.7-0.1
		c0.2,0,0.3-0.1,0.2-0.1c3-0.4,6.1-1.6,8.6-3.4c-0.2,0.4-0.3,0.8-0.5,1.3c-0.5,0.4-1,0.8-1.5,1.2c0.5-0.3,1-0.7,1.5-1.1
		C15.8,14.6,15.8,14.6,15.8,14.7z M17.4,11.7h-0.1c0,0.2-0.3,0.3-0.3,0.5c0,0,0,0-0.1,0c0.1,0.2-0.3,0.2-0.1,0.5c0,0,0,0,0,0h-0.1
		l0,0c0,0,0,0-0.1,0c0,0-0.1-0.1-0.1-0.1c0,0,0,0.1,0,0.1c0,0,0,0-0.1,0c-0.2,0.2-0.5,0.4-0.6,0.5c-2.3,1.5-5,2.5-7.9,2.9
		c0,0,0.1,0,0.1,0c0,0-0.1,0-0.1,0c-0.1,0,0,0,0-0.1c-0.1,0-0.3,0.1-0.4,0.2c-0.4,0.1-0.9,0.1-1.3,0.1l0,0.2
		c-0.1-0.1-0.2-0.1-0.3-0.2c-0.3-0.3-0.6-0.3-0.8-0.6l0.1-0.1c-0.1,0-0.1,0-0.2,0c0.3-0.1,0.6-0.3,0.9-0.4c0.2-0.1,0.5-0.1,0.7-0.2
		l-0.1,0.1l0.6-0.2V15c1.9-0.4,3.4-0.9,5-1.5l-0.1,0.1c0.6-0.3,1.3-0.6,2-0.9c-1.8,1.1-3.6,2.2-5.7,3.3c0.1,0,0.1-0.1,0.1-0.1
		c-0.1,0.1-0.2,0.2-0.3,0.2c0.5-0.2,0.9-0.4,1.3-0.6c1.8-1.2,4.3-2.2,6.4-3.7c0.2-0.1,0.3-0.2,0.5-0.3c0,0,0.1,0,0.1-0.1l-0.1,0.1
		c0.1-0.1,0.2-0.2,0.4-0.2C16.9,11.4,17.2,11.5,17.4,11.7z"/>
	<path d="M10.1,8.6C10.1,8.6,10.2,8.6,10.1,8.6c0.1-0.1,0.2-0.2,0.2-0.2L10.1,8.6z"/>
	<polygon points="12.2,4.3 12.2,4.2 12.2,4.3 	"/>
	<path d="M13.4,16.2c-0.4,0.2-0.3,0.2-0.3,0.3C13.2,16.4,13.3,16.3,13.4,16.2C13.5,16.2,13.5,16.2,13.4,16.2z"/>
	<path d="M13.5,16.2c0.3-0.2,0.6-0.4,0.9-0.6C14.1,15.8,13.8,16,13.5,16.2C13.5,16.2,13.4,16.3,13.5,16.2z"/>
	<path d="M8,16.1C8,16.1,8.1,16.1,8,16.1C8.1,16.1,8,16.1,8,16.1z"/>
	<path d="M3.3,8.1C3.3,8.1,3.3,8.1,3.3,8.1l0-0.1C3.3,8,3.3,8,3.3,8.1L3.3,8.1z"/>
	<path d="M8.1,16.2C8.1,16.2,8.1,16.2,8.1,16.2C8.1,16.2,8.1,16.2,8.1,16.2z"/>
	<path d="M6.6,5.5c0.1-0.1,0.1-0.1,0.2-0.1C6.7,5.4,6.6,5.4,6.6,5.5z"/>
	<polygon points="10.2,1.7 10.1,1.9 10.2,1.8 	"/>
	<path d="M9.8,2.2L9.8,2.2L9.8,2.2C9.8,2.2,9.8,2.2,9.8,2.2z"/>
	<path d="M9.9,2.2L10,1.8C9.9,1.7,9.9,2,9.9,2.2z"/>
	<path d="M9.9,2.2C9.9,2.2,9.9,2.2,9.9,2.2L9.9,2.2z"/>
	<path d="M9.7,2.1C9.6,2,9.6,2.2,9.6,2.3C9.6,2.1,9.8,2.3,9.7,2.1z"/>
</g>
</svg>
